<?xml version="1.0" encoding="utf-8"?>
<!-- Generator: Adobe Illustrator 23.0.1, SVG Export Plug-In . SVG Version: 6.00 Build 0)  -->
<svg version="1.1" id="Capa_1" xmlns="http://www.w3.org/2000/svg" xmlns:xlink="http://www.w3.org/1999/xlink" x="0px" y="0px"
	 viewBox="0 0 186.58 222.06" style="enable-background:new 0 0 186.58 222.06;" xml:space="preserve">
<style type="text/css">
	.st0{fill:none;stroke:#000000;stroke-width:0.75;stroke-miterlimit:10;}
	.st1{fill:#0F639F;stroke:#2A338A;stroke-width:2;stroke-miterlimit:10;}
	.st2{fill:#FFFFFF;}
	.st3{fill:#60C2E5;}
	.st4{fill:#F9FCF9;}
	.st5{font-family:'Varsity-Regular';}
	.st6{font-size:47.0157px;}
	.st7{font-size:31.4172px;}
</style>
<path class="st0" d="M92.56,12.58"/>
<path class="st1" d="M85.41,217.69C25,175.19,7.15,131.27,2.94,118.12c-0.74-2.31-1.12-4.72-1.12-7.15V28.39
	c0-2.35,1.6-4.4,3.88-4.97L87.65,2.99c3.23-0.81,6.61-0.81,9.84,0l81.94,20.43c2.28,0.57,3.88,2.62,3.88,4.97v82.58
	c0,2.43-0.38,4.84-1.12,7.15c-4.21,13.15-22.05,57.07-82.47,99.57C95.42,220.71,89.7,220.71,85.41,217.69z"/>
<path class="st2" d="M92.56,83.03H10.1c-1.58,0-2.86-1.28-2.86-2.86V31.82c0-1.3,0.88-2.44,2.13-2.77l82.46-21.7
	c0.48-0.13,0.98-0.13,1.46,0l82.46,21.7c1.26,0.33,2.13,1.47,2.13,2.77v48.35c0,1.58-1.28,2.86-2.86,2.86H92.56z"/>
<path class="st3" d="M92.56,78.18H29.34c-1.73,0-3.14-1.4-3.14-3.14V31.69c0-1.44,0.99-2.7,2.39-3.05l63.22-15.45
	c0.49-0.12,1-0.12,1.49,0l63.22,15.45c1.4,0.34,2.39,1.6,2.39,3.05v43.36c0,1.73-1.4,3.14-3.14,3.14H92.56z"/>
<path class="st4" d="M93.27,20.77l6.03,18.56c0.1,0.31,0.39,0.52,0.71,0.52h19.52c0.72,0,1.02,0.92,0.44,1.35l-15.79,11.47
	c-0.26,0.19-0.37,0.53-0.27,0.83l6.03,18.56c0.22,0.69-0.56,1.26-1.15,0.83L93,61.43c-0.26-0.19-0.61-0.19-0.88,0L76.33,72.9
	c-0.58,0.42-1.37-0.15-1.15-0.83l6.03-18.56c0.1-0.31-0.01-0.64-0.27-0.83L65.16,41.2c-0.58-0.42-0.28-1.35,0.44-1.35h19.52
	c0.32,0,0.61-0.21,0.71-0.52l6.03-18.56C92.08,20.08,93.05,20.08,93.27,20.77z"/>
<rect x="56.22" y="20.32" class="st4" width="3.22" height="57.86"/>
<rect x="90.96" y="10.77" class="st4" width="3.22" height="67.41"/>
<rect x="125.7" y="22.32" class="st4" width="3.22" height="57.86"/>
<g>
	<text transform="matrix(1 0 0 1 32.9481 136.5682)" class="st2 st5 st6">ABAD</text>
</g>
<g>
	<text transform="matrix(1 0 0 1 58.3665 179.287)" class="st2 st5 st7">1913</text>
</g>
</svg>
