<?xml version="1.0" encoding="utf-8"?>
<!-- Generator: Adobe Illustrator 23.0.1, SVG Export Plug-In . SVG Version: 6.00 Build 0)  -->
<svg version="1.1" id="Capa_1" xmlns="http://www.w3.org/2000/svg" xmlns:xlink="http://www.w3.org/1999/xlink" x="0px" y="0px"
	 viewBox="0 0 186.58 222.06" style="enable-background:new 0 0 186.58 222.06;" xml:space="preserve">
<style type="text/css">
	.st0{fill:none;stroke:#000000;stroke-width:0.75;stroke-miterlimit:10;}
	.st1{fill:#0F639F;stroke:#2A338A;stroke-width:2;stroke-miterlimit:10;}
	.st2{fill:#FFFFFF;}
	.st3{fill:#60C2E5;}
	.st4{fill:#F9FCF9;}
</style>
<path class="st0" d="M92.56,12.58"/>
<path class="st1" d="M85.41,217.69C25,175.19,7.15,131.27,2.94,118.12c-0.74-2.31-1.12-4.72-1.12-7.15V28.39
	c0-2.35,1.6-4.4,3.88-4.97L87.65,2.99c3.23-0.81,6.61-0.81,9.84,0l81.94,20.43c2.28,0.57,3.88,2.62,3.88,4.97v82.58
	c0,2.43-0.38,4.84-1.12,7.15c-4.21,13.15-22.05,57.07-82.47,99.57C95.42,220.71,89.7,220.71,85.41,217.69z"/>
<path class="st2" d="M92.56,83.03H10.1c-1.58,0-2.86-1.28-2.86-2.86V31.82c0-1.3,0.88-2.44,2.13-2.77l82.46-21.7
	c0.48-0.13,0.98-0.13,1.46,0l82.46,21.7c1.26,0.33,2.13,1.47,2.13,2.77v48.35c0,1.58-1.28,2.86-2.86,2.86H92.56z"/>
<path class="st3" d="M92.56,78.18H29.34c-1.73,0-3.14-1.4-3.14-3.14V31.69c0-1.44,0.99-2.7,2.39-3.05l63.22-15.45
	c0.49-0.12,1-0.12,1.49,0l63.22,15.45c1.4,0.34,2.39,1.6,2.39,3.05v43.36c0,1.73-1.4,3.14-3.14,3.14H92.56z"/>
<path class="st4" d="M93.27,20.77l6.03,18.56c0.1,0.31,0.39,0.52,0.71,0.52h19.52c0.72,0,1.02,0.92,0.44,1.35l-15.79,11.47
	c-0.26,0.19-0.37,0.53-0.27,0.83l6.03,18.56c0.22,0.69-0.56,1.26-1.15,0.83L93,61.43c-0.26-0.19-0.61-0.19-0.88,0L76.33,72.9
	c-0.58,0.42-1.37-0.15-1.15-0.83l6.03-18.56c0.1-0.31-0.01-0.64-0.27-0.83L65.16,41.2c-0.58-0.42-0.28-1.35,0.44-1.35h19.52
	c0.32,0,0.61-0.21,0.71-0.52l6.03-18.56C92.08,20.08,93.05,20.08,93.27,20.77z"/>
<rect x="56.22" y="20.32" class="st4" width="3.22" height="57.86"/>
<rect x="90.96" y="10.77" class="st4" width="3.22" height="67.41"/>
<rect x="125.7" y="22.32" class="st4" width="3.22" height="57.86"/>
<g>
	<g>
		<path class="st2" d="M33.94,136.57v-7.38h1.97l6.02-18.1h-1.46v-7.43h17.49v7.43h-1.65l6.02,18.1h1.93v7.38h-12.6v-7.38h1.13
			l-0.52-1.55h-6.3l-0.56,1.55h1.13v7.38H33.94z M45.74,135.77v-5.83h-1.22l0.75-3.06h7.71l0.71,3.06h-1.22v5.83h11.05v-5.83h-1.88
			l-6.3-19.65h1.83v-5.83H41.27v5.83h1.6l-6.3,19.65h-1.83v5.83H45.74z M35.77,134.73v-3.76h1.41l7.19-21.72H42.3v-3.76h13.87v3.76
			h-2.3l7.19,21.72h1.41v3.76h-8.98v-3.76h1.79l-1.69-5.13h-8.98l-1.69,5.13h1.79v3.76H35.77z M52.65,123.12l-3.53-10.72
			l-3.62,10.72H52.65z M47.1,122.18l2.02-6.54l1.97,6.54H47.1z M50.2,121.34l-1.08-3.15l-1.08,3.15H50.2z"/>
		<path class="st2" d="M65.95,136.57v-7.38h1.97v-18.1h-1.97v-7.43h20.36l5.27,5.27v8.46l-2.16,2.16l2.16,2.16v9.59l-5.27,5.27
			H65.95z M85.98,135.77l4.8-4.8v-8.93l-2.44-2.44l2.44-2.44v-7.9l-4.8-4.8H66.75v5.83h1.93v19.65h-1.93v5.83H85.98z M67.79,134.73
			v-3.76h1.93v-21.72h-1.93v-3.76h17.63l4.33,4.33v6.72l-2.96,2.96l2.96,2.96v7.95l-4.33,4.33H67.79z M82.31,117.67l2.02-2.02v-4.37
			l-2.02-2.02h-7.15v8.42H82.31z M82.31,130.97l2.02-2.02v-5.5l-2.02-2.02h-7.15v9.54H82.31z M76.16,116.63v-6.35h5.5l1.69,1.69
			v2.96l-1.69,1.69H76.16z M76.16,129.94v-7.52h5.5l1.69,1.69v4.14l-1.69,1.69H76.16z M81.47,115.83l1.08-1.08v-2.59l-1.08-1.08
			h-4.51v4.75H81.47z M81.47,129.19l1.08-1.08v-3.81l-1.08-1.08h-4.51v5.97H81.47z"/>
		<path class="st2" d="M92.89,136.57v-7.38h1.97l6.02-18.1h-1.46v-7.43h17.49v7.43h-1.65l6.02,18.1h1.93v7.38h-12.6v-7.38h1.13
			l-0.52-1.55h-6.3l-0.56,1.55h1.13v7.38H92.89z M104.69,135.77v-5.83h-1.22l0.75-3.06h7.71l0.71,3.06h-1.22v5.83h11.05v-5.83h-1.88
			l-6.3-19.65h1.83v-5.83h-15.89v5.83h1.6l-6.3,19.65h-1.83v5.83H104.69z M94.73,134.73v-3.76h1.41l7.19-21.72h-2.07v-3.76h13.87
			v3.76h-2.3l7.19,21.72h1.41v3.76h-8.98v-3.76h1.79l-1.69-5.13h-8.98l-1.69,5.13h1.79v3.76H94.73z M111.6,123.12l-3.53-10.72
			l-3.62,10.72H111.6z M106.06,122.18l2.02-6.54l1.97,6.54H106.06z M109.16,121.34l-1.08-3.15l-1.08,3.15H109.16z"/>
		<path class="st2" d="M124.91,136.57v-7.38h1.97v-18.1h-1.97v-7.43h20.36l5.27,5.27v22.38l-5.27,5.27H124.91z M144.94,135.77
			l4.8-4.8v-21.72l-4.8-4.8h-19.23v5.83h1.93v19.65h-1.93v5.83H144.94z M126.74,134.73v-3.76h1.93v-21.72h-1.93v-3.76h17.63
			l4.33,4.33v20.59l-4.33,4.33H126.74z M141.27,130.97l2.02-2.02v-17.68l-2.02-2.02h-7.15v21.72H141.27z M135.11,129.94v-19.65h5.64
			l1.55,1.55v16.41l-1.69,1.69H135.11z M140.43,129.19l1.08-1.08v-15.99l-1.03-1.03h-4.56v18.1H140.43z"/>
	</g>
</g>
<g>
	<g>
		<path class="st2" d="M62.33,179.29v-4.93h2.76v-9.49h-2.76v-3.49l4.08-4.08h4.71v17.06h2.2v4.93H62.33z M72.82,178.75v-3.9h-2.2
			v-17.03H66.5l-3.64,3.64v2.86h2.76v10.52h-2.76v3.9H72.82z M63.55,178.06v-2.51h2.76v-11.88h-2.76v-1.76l3.39-3.39h2.95v17.03h2.2
			v2.51H63.55z"/>
		<path class="st2" d="M74.86,175.77v-3.58h6.03v1.44l0.72,0.72h3.21l0.69-0.69v-3.17h-7.13l-3.52-3.52v-6.16l3.52-3.52h9.68
			l3.52,3.52v14.95l-3.52,3.52h-9.68L74.86,175.77z M78.5,178.75h9.42l3.11-3.11v-14.7l-3.11-3.11H78.5l-3.11,3.11v5.91l3.11,3.11
			h7.54v3.8l-1.1,1.1h-3.46l-1.1-1.1v-1.04h-5v2.92L78.5,178.75z M76.09,175.2v-1.82h3.61v0.82l1.35,1.35h4.34l1.35-1.35v-4.9h-7.76
			l-2.89-2.89v-5l2.89-2.89h8.48l2.92,2.89v13.79l-2.86,2.86h-8.54L76.09,175.2z M81.05,166.75h4.3l1.38-1.38v-2.98l-1.38-1.32h-4.3
			l-1.35,1.32v3.02L81.05,166.75z M80.39,164.96v-2.14l1.1-1.1h3.46l1.1,1.1v2.14l-1.1,1.1h-3.46L80.39,164.96z M81.62,165.56h3.21
			l0.69-0.72v-1.88l-0.69-0.69h-3.24l-0.69,0.69v1.88L81.62,165.56z"/>
		<path class="st2" d="M96.63,179.29v-4.93h2.76v-9.49h-2.76v-3.49l4.08-4.08h4.71v17.06h2.2v4.93H96.63z M107.13,178.75v-3.9h-2.2
			v-17.03h-4.12l-3.64,3.64v2.86h2.76v10.52h-2.76v3.9H107.13z M97.86,178.06v-2.51h2.76v-11.88h-2.76v-1.76l3.39-3.39h2.95v17.03
			h2.2v2.51H97.86z"/>
		<path class="st2" d="M108.95,175.77v-3.2h6.03v1.07l0.72,0.72h3.21l0.69-0.69v-2.14l-0.69-0.69h-2.73v-5.09h2.8l0.63-0.66v-2.14
			l-0.69-0.69h-3.24l-0.69,0.69v1.51h-6.03v-3.64l3.52-3.52h9.68l3.52,3.52v6.53l-0.94,0.94l0.94,0.94v6.54l-3.52,3.52h-9.68
			L108.95,175.77z M112.59,178.75h9.42l3.11-3.11v-6.28l-1.07-1.07l1.07-1.07v-6.19l-3.2-3.2h-9.27l-3.17,3.17v2.95h5v-1.13l1.1-1.1
			h3.46l1.07,1.07v2.45l-1.04,1.04h-2.36v4.02h2.36l1.07,1.1v2.36l-1.1,1.1h-3.46l-1.1-1.1v-0.66h-5v2.54L112.59,178.75z
			 M110.2,175.17v-1.41h3.58v0.44l1.35,1.35h4.3l1.38-1.38v-3.17l-1.38-1.38h-2.07v-2.64h2.07l1.38-1.38v-3.17l-1.38-1.38h-4.3
			l-1.35,1.35v0.88h-3.61v-1.82l2.92-2.92h8.48l2.89,2.89v5.4l-1.48,1.48l1.48,1.48v5.4l-2.86,2.86h-8.54L110.2,175.17z"/>
	</g>
</g>
</svg>
